<mxfile host="app.diagrams.net" agent="Mozilla/5.0 (X11; Linux x86_64) AppleWebKit/537.36 (KHTML, like Gecko) Chrome/138.0.0.0 Safari/537.36" version="28.0.4">
  <diagram name="Page-1" id="zd-IiSpgPhb6Q46-f7fQ">
    <mxGraphModel dx="1425" dy="799" grid="1" gridSize="10" guides="1" tooltips="1" connect="1" arrows="1" fold="1" page="1" pageScale="1" pageWidth="850" pageHeight="1100" math="0" shadow="0">
      <root>
        <mxCell id="0" />
        <mxCell id="1" parent="0" />
        <mxCell id="Mpa7lbC3KIBq6oretuBc-42" value="" style="rounded=1;whiteSpace=wrap;html=1;fillColor=none;" parent="1" vertex="1">
          <mxGeometry x="120" y="340" width="650" height="160" as="geometry" />
        </mxCell>
        <mxCell id="Mpa7lbC3KIBq6oretuBc-2" value="" style="rounded=1;whiteSpace=wrap;html=1;" parent="1" vertex="1">
          <mxGeometry x="120" y="70" width="650" height="170" as="geometry" />
        </mxCell>
        <mxCell id="Mpa7lbC3KIBq6oretuBc-3" value="Tuleap Core" style="text;html=1;align=center;verticalAlign=middle;whiteSpace=wrap;rounded=0;" parent="1" vertex="1">
          <mxGeometry x="120" y="40" width="90" height="30" as="geometry" />
        </mxCell>
        <mxCell id="ElGUhZ-Qga2sIKb7OKj3-9" style="edgeStyle=orthogonalEdgeStyle;rounded=0;orthogonalLoop=1;jettySize=auto;html=1;exitX=0.5;exitY=1;exitDx=0;exitDy=0;" edge="1" parent="1" source="Mpa7lbC3KIBq6oretuBc-5" target="ElGUhZ-Qga2sIKb7OKj3-2">
          <mxGeometry relative="1" as="geometry" />
        </mxCell>
        <mxCell id="ElGUhZ-Qga2sIKb7OKj3-11" style="edgeStyle=orthogonalEdgeStyle;rounded=0;orthogonalLoop=1;jettySize=auto;html=1;exitX=1;exitY=0.5;exitDx=0;exitDy=0;entryX=0;entryY=0.5;entryDx=0;entryDy=0;" edge="1" parent="1" source="Mpa7lbC3KIBq6oretuBc-5" target="Mpa7lbC3KIBq6oretuBc-6">
          <mxGeometry relative="1" as="geometry" />
        </mxCell>
        <mxCell id="Mpa7lbC3KIBq6oretuBc-5" value="agiledashboard" style="rounded=1;whiteSpace=wrap;html=1;dashed=1;" parent="1" vertex="1">
          <mxGeometry x="140" y="350" width="120" height="60" as="geometry" />
        </mxCell>
        <mxCell id="Mpa7lbC3KIBq6oretuBc-6" value="tracker" style="rounded=1;whiteSpace=wrap;html=1;dashed=1;" parent="1" vertex="1">
          <mxGeometry x="305" y="400" width="120" height="60" as="geometry" />
        </mxCell>
        <mxCell id="ElGUhZ-Qga2sIKb7OKj3-12" style="edgeStyle=orthogonalEdgeStyle;rounded=0;orthogonalLoop=1;jettySize=auto;html=1;exitX=0;exitY=0.5;exitDx=0;exitDy=0;entryX=1;entryY=0.5;entryDx=0;entryDy=0;" edge="1" parent="1" source="Mpa7lbC3KIBq6oretuBc-7" target="Mpa7lbC3KIBq6oretuBc-6">
          <mxGeometry relative="1" as="geometry" />
        </mxCell>
        <mxCell id="Mpa7lbC3KIBq6oretuBc-7" value="artidoc" style="rounded=1;whiteSpace=wrap;html=1;dashed=1;" parent="1" vertex="1">
          <mxGeometry x="470" y="350" width="120" height="60" as="geometry" />
        </mxCell>
        <mxCell id="ElGUhZ-Qga2sIKb7OKj3-20" style="edgeStyle=orthogonalEdgeStyle;rounded=0;orthogonalLoop=1;jettySize=auto;html=1;exitX=0.5;exitY=1;exitDx=0;exitDy=0;" edge="1" parent="1" source="Mpa7lbC3KIBq6oretuBc-8" target="ElGUhZ-Qga2sIKb7OKj3-2">
          <mxGeometry relative="1" as="geometry" />
        </mxCell>
        <mxCell id="Mpa7lbC3KIBq6oretuBc-8" value="..." style="rounded=1;whiteSpace=wrap;html=1;dashed=1;" parent="1" vertex="1">
          <mxGeometry x="600" y="350" width="120" height="60" as="geometry" />
        </mxCell>
        <mxCell id="Mpa7lbC3KIBq6oretuBc-36" value="User" style="rounded=1;whiteSpace=wrap;html=1;dashed=1;" parent="1" vertex="1">
          <mxGeometry x="150" y="100" width="120" height="60" as="geometry" />
        </mxCell>
        <mxCell id="Mpa7lbC3KIBq6oretuBc-38" value="Site wide&amp;nbsp;&lt;div&gt;(search, help...)&lt;/div&gt;" style="rounded=1;whiteSpace=wrap;html=1;dashed=1;" parent="1" vertex="1">
          <mxGeometry x="150" y="170" width="120" height="60" as="geometry" />
        </mxCell>
        <mxCell id="Mpa7lbC3KIBq6oretuBc-39" value="Project" style="rounded=1;whiteSpace=wrap;html=1;dashed=1;" parent="1" vertex="1">
          <mxGeometry x="280" y="100" width="120" height="60" as="geometry" />
        </mxCell>
        <mxCell id="Mpa7lbC3KIBq6oretuBc-40" value="Shared libs /&lt;div&gt;Framework&lt;/div&gt;" style="rounded=1;whiteSpace=wrap;html=1;dashed=1;" parent="1" vertex="1">
          <mxGeometry x="410" y="100" width="120" height="130" as="geometry" />
        </mxCell>
        <mxCell id="Mpa7lbC3KIBq6oretuBc-43" value="Tuleap plugins" style="text;html=1;align=center;verticalAlign=middle;whiteSpace=wrap;rounded=0;" parent="1" vertex="1">
          <mxGeometry x="120" y="310" width="90" height="30" as="geometry" />
        </mxCell>
        <mxCell id="Mpa7lbC3KIBq6oretuBc-44" value="" style="endArrow=none;html=1;rounded=0;strokeWidth=3;" parent="1" edge="1">
          <mxGeometry width="50" height="50" relative="1" as="geometry">
            <mxPoint x="120" y="300" as="sourcePoint" />
            <mxPoint x="770" y="300" as="targetPoint" />
          </mxGeometry>
        </mxCell>
        <mxCell id="Mpa7lbC3KIBq6oretuBc-45" value="Event manager" style="text;html=1;align=center;verticalAlign=middle;whiteSpace=wrap;rounded=0;" parent="1" vertex="1">
          <mxGeometry x="770" y="290" width="60" height="30" as="geometry" />
        </mxCell>
        <mxCell id="Mpa7lbC3KIBq6oretuBc-46" value="" style="endArrow=classic;html=1;rounded=0;startArrow=classic;startFill=1;strokeColor=#00CCCC;" parent="1" edge="1">
          <mxGeometry width="50" height="50" relative="1" as="geometry">
            <mxPoint x="190" y="350" as="sourcePoint" />
            <mxPoint x="240" y="300" as="targetPoint" />
          </mxGeometry>
        </mxCell>
        <mxCell id="Mpa7lbC3KIBq6oretuBc-47" value="" style="endArrow=classic;startArrow=classic;html=1;rounded=0;exitX=0.5;exitY=0;exitDx=0;exitDy=0;strokeColor=#00CCCC;" parent="1" edge="1" source="Mpa7lbC3KIBq6oretuBc-6">
          <mxGeometry width="50" height="50" relative="1" as="geometry">
            <mxPoint x="330" y="350" as="sourcePoint" />
            <mxPoint x="310" y="300" as="targetPoint" />
          </mxGeometry>
        </mxCell>
        <mxCell id="Mpa7lbC3KIBq6oretuBc-48" value="" style="endArrow=classic;startArrow=classic;html=1;rounded=0;exitX=0.542;exitY=0.022;exitDx=0;exitDy=0;exitPerimeter=0;strokeColor=#00CCCC;" parent="1" edge="1" source="Mpa7lbC3KIBq6oretuBc-7">
          <mxGeometry width="50" height="50" relative="1" as="geometry">
            <mxPoint x="460" y="350" as="sourcePoint" />
            <mxPoint x="510" y="300" as="targetPoint" />
          </mxGeometry>
        </mxCell>
        <mxCell id="Mpa7lbC3KIBq6oretuBc-49" value="" style="endArrow=classic;startArrow=classic;html=1;rounded=0;exitX=0.5;exitY=0;exitDx=0;exitDy=0;strokeColor=#00CCCC;" parent="1" edge="1" source="Mpa7lbC3KIBq6oretuBc-8">
          <mxGeometry width="50" height="50" relative="1" as="geometry">
            <mxPoint x="590" y="350" as="sourcePoint" />
            <mxPoint x="550" y="300" as="targetPoint" />
          </mxGeometry>
        </mxCell>
        <mxCell id="Mpa7lbC3KIBq6oretuBc-53" value="Site Admin" style="rounded=1;whiteSpace=wrap;html=1;dashed=1;" parent="1" vertex="1">
          <mxGeometry x="280" y="170" width="120" height="60" as="geometry" />
        </mxCell>
        <mxCell id="Mpa7lbC3KIBq6oretuBc-54" value="" style="rounded=1;whiteSpace=wrap;html=1;" parent="1" vertex="1">
          <mxGeometry x="540" y="90" width="210" height="140" as="geometry" />
        </mxCell>
        <mxCell id="Mpa7lbC3KIBq6oretuBc-55" value="Legacy services (to be deleted)" style="text;html=1;align=center;verticalAlign=middle;whiteSpace=wrap;rounded=0;" parent="1" vertex="1">
          <mxGeometry x="540" y="70" width="190" height="30" as="geometry" />
        </mxCell>
        <mxCell id="Mpa7lbC3KIBq6oretuBc-52" value="File Release System" style="rounded=1;whiteSpace=wrap;html=1;dashed=1;" parent="1" vertex="1">
          <mxGeometry x="550" y="100" width="50" height="40" as="geometry" />
        </mxCell>
        <mxCell id="Mpa7lbC3KIBq6oretuBc-56" value="Forums" style="rounded=1;whiteSpace=wrap;html=1;dashed=1;" parent="1" vertex="1">
          <mxGeometry x="610" y="100" width="50" height="40" as="geometry" />
        </mxCell>
        <mxCell id="Mpa7lbC3KIBq6oretuBc-57" value="..." style="rounded=1;whiteSpace=wrap;html=1;dashed=1;" parent="1" vertex="1">
          <mxGeometry x="670" y="100" width="50" height="40" as="geometry" />
        </mxCell>
        <mxCell id="Mpa7lbC3KIBq6oretuBc-58" value="" style="endArrow=classic;startArrow=classic;html=1;rounded=0;strokeColor=#00CCCC;" parent="1" edge="1">
          <mxGeometry width="50" height="50" relative="1" as="geometry">
            <mxPoint x="444.5" y="296" as="sourcePoint" />
            <mxPoint x="444.5" y="246" as="targetPoint" />
          </mxGeometry>
        </mxCell>
        <mxCell id="ElGUhZ-Qga2sIKb7OKj3-2" value="MySQL" style="shape=cylinder3;whiteSpace=wrap;html=1;boundedLbl=1;backgroundOutline=1;size=15;" vertex="1" parent="1">
          <mxGeometry x="245" y="550" width="60" height="80" as="geometry" />
        </mxCell>
        <mxCell id="ElGUhZ-Qga2sIKb7OKj3-3" value="Redis" style="shape=cylinder3;whiteSpace=wrap;html=1;boundedLbl=1;backgroundOutline=1;size=15;" vertex="1" parent="1">
          <mxGeometry x="365" y="550" width="60" height="80" as="geometry" />
        </mxCell>
        <mxCell id="ElGUhZ-Qga2sIKb7OKj3-13" value="Dependency" style="text;html=1;align=center;verticalAlign=middle;whiteSpace=wrap;rounded=0;" vertex="1" parent="1">
          <mxGeometry x="270" y="350" width="60" height="30" as="geometry" />
        </mxCell>
        <mxCell id="ElGUhZ-Qga2sIKb7OKj3-14" value="Dependency" style="text;html=1;align=center;verticalAlign=middle;whiteSpace=wrap;rounded=0;" vertex="1" parent="1">
          <mxGeometry x="410" y="350" width="60" height="30" as="geometry" />
        </mxCell>
        <mxCell id="ElGUhZ-Qga2sIKb7OKj3-15" value="Event" style="text;html=1;align=center;verticalAlign=middle;whiteSpace=wrap;rounded=0;fontColor=#00CCCC;" vertex="1" parent="1">
          <mxGeometry x="440" y="250" width="60" height="30" as="geometry" />
        </mxCell>
        <mxCell id="ElGUhZ-Qga2sIKb7OKj3-16" value="Events" style="text;html=1;align=center;verticalAlign=middle;whiteSpace=wrap;rounded=0;fontColor=#00CCCC;" vertex="1" parent="1">
          <mxGeometry x="620" y="300" width="60" height="30" as="geometry" />
        </mxCell>
        <mxCell id="ElGUhZ-Qga2sIKb7OKj3-18" style="edgeStyle=orthogonalEdgeStyle;rounded=0;orthogonalLoop=1;jettySize=auto;html=1;exitX=0.5;exitY=1;exitDx=0;exitDy=0;entryX=0.5;entryY=0;entryDx=0;entryDy=0;entryPerimeter=0;" edge="1" parent="1" source="Mpa7lbC3KIBq6oretuBc-7" target="ElGUhZ-Qga2sIKb7OKj3-2">
          <mxGeometry relative="1" as="geometry" />
        </mxCell>
        <mxCell id="ElGUhZ-Qga2sIKb7OKj3-22" style="edgeStyle=orthogonalEdgeStyle;rounded=0;orthogonalLoop=1;jettySize=auto;html=1;exitX=0.5;exitY=1;exitDx=0;exitDy=0;entryX=0.5;entryY=0;entryDx=0;entryDy=0;entryPerimeter=0;" edge="1" parent="1" source="Mpa7lbC3KIBq6oretuBc-6" target="ElGUhZ-Qga2sIKb7OKj3-2">
          <mxGeometry relative="1" as="geometry">
            <Array as="points">
              <mxPoint x="365" y="480" />
              <mxPoint x="275" y="480" />
            </Array>
          </mxGeometry>
        </mxCell>
        <mxCell id="ElGUhZ-Qga2sIKb7OKj3-27" value="" style="endArrow=classic;html=1;rounded=0;entryX=0.5;entryY=0;entryDx=0;entryDy=0;entryPerimeter=0;" edge="1" parent="1">
          <mxGeometry width="50" height="50" relative="1" as="geometry">
            <mxPoint x="395" y="480" as="sourcePoint" />
            <mxPoint x="395" y="550" as="targetPoint" />
          </mxGeometry>
        </mxCell>
        <mxCell id="ElGUhZ-Qga2sIKb7OKj3-28" value="" style="endArrow=classic;html=1;rounded=0;exitX=0;exitY=0.5;exitDx=0;exitDy=0;entryX=0;entryY=0.5;entryDx=0;entryDy=0;entryPerimeter=0;" edge="1" parent="1" source="Mpa7lbC3KIBq6oretuBc-2" target="ElGUhZ-Qga2sIKb7OKj3-2">
          <mxGeometry width="50" height="50" relative="1" as="geometry">
            <mxPoint x="560" y="340" as="sourcePoint" />
            <mxPoint x="610" y="290" as="targetPoint" />
            <Array as="points">
              <mxPoint x="60" y="155" />
              <mxPoint x="60" y="590" />
            </Array>
          </mxGeometry>
        </mxCell>
        <mxCell id="ElGUhZ-Qga2sIKb7OKj3-29" value="" style="endArrow=classic;html=1;rounded=0;exitX=1;exitY=0.5;exitDx=0;exitDy=0;entryX=1;entryY=0.5;entryDx=0;entryDy=0;entryPerimeter=0;" edge="1" parent="1" source="Mpa7lbC3KIBq6oretuBc-2" target="ElGUhZ-Qga2sIKb7OKj3-3">
          <mxGeometry width="50" height="50" relative="1" as="geometry">
            <mxPoint x="560" y="340" as="sourcePoint" />
            <mxPoint x="610" y="290" as="targetPoint" />
            <Array as="points">
              <mxPoint x="840" y="155" />
              <mxPoint x="840" y="590" />
            </Array>
          </mxGeometry>
        </mxCell>
      </root>
    </mxGraphModel>
  </diagram>
</mxfile>
